HIERARCHY
ROOT hips
{
  OFFSET 0 9.313263304106702 1.2146308026317778
  CHANNELS 6 Xposition Yposition Zposition Yrotation Xrotation Zrotation
  JOINT spine
  {
    OFFSET -6.402521e-31 0.5173342420023708 0
    CHANNELS 3 Yrotation Xrotation Zrotation
    JOINT chest
    {
      OFFSET 0 1.130544299341115 0
      CHANNELS 3 Yrotation Xrotation Zrotation
      JOINT upperChest
      {
        OFFSET 0 1.0863555061129995 0
        CHANNELS 3 Yrotation Xrotation Zrotation
        JOINT neck
        {
          OFFSET 0 1.3773706506454462 0
          CHANNELS 3 Yrotation Xrotation Zrotation
          JOINT head
          {
            OFFSET 0 0.7374408940073979 0
            CHANNELS 3 Yrotation Xrotation Zrotation
            JOINT leftEye
            {
              OFFSET 0.25066580148932727 0.6408406698778757 0.15963719178883284
              CHANNELS 3 Yrotation Xrotation Zrotation
              End Site
              {
                OFFSET 0.25066580148932727 0.6408406698778757 0.15963719178883284
              }
            }
            JOINT rightEye
            {
              OFFSET -0.25066576739704244 0.6408406384191823 0.15963727561643756
              CHANNELS 3 Yrotation Xrotation Zrotation
              End Site
              {
                OFFSET -0.25066576739704244 0.6408406384191823 0.15963727561643756
              }
            }
          }
        }
        JOINT leftShoulder
        {
          OFFSET 0.3761817444281191 1.0539491987447769 0
          CHANNELS 3 Yrotation Xrotation Zrotation
          JOINT leftUpperArm
          {
            OFFSET 0.8702844380000002 0 0
            CHANNELS 3 Yrotation Xrotation Zrotation
            JOINT leftLowerArm
            {
              OFFSET 2.198527310000323 0 0
              CHANNELS 3 Yrotation Xrotation Zrotation
              JOINT leftHand
              {
                OFFSET 2.146852313968281 0 0
                CHANNELS 3 Yrotation Xrotation Zrotation
                JOINT leftIndexProximal
                {
                  OFFSET 0.6585177834681599 0.07380250427007962 0.18382213159631788
                  CHANNELS 3 Yrotation Xrotation Zrotation
                  JOINT leftIndexIntermediate
                  {
                    OFFSET 0.3323021288626682 -0.009606893929485771 -0.012820872253340998
                    CHANNELS 3 Yrotation Xrotation Zrotation
                    JOINT leftIndexDistal
                    {
                      OFFSET 0.2045908926985518 -0.0071133989147997845 -0.006828784783599051
                      CHANNELS 3 Yrotation Xrotation Zrotation
                      End Site
                      {
                        OFFSET 0.2045908926985518 -0.0071133989147997845 -0.006828784783599051
                      }
                    }
                  }
                }
                JOINT leftLittleProximal
                {
                  OFFSET 0.6110054258835662 0.07380246363125398 -0.29175655876064077
                  CHANNELS 3 Yrotation Xrotation Zrotation
                  JOINT leftLittleIntermediate
                  {
                    OFFSET 0.3144281999999998 -2.5124724523095665e-9 1.8658118799974588e-7
                    CHANNELS 3 Yrotation Xrotation Zrotation
                    JOINT leftLittleDistal
                    {
                      OFFSET 0.18116185580251631 0.002815456192251098 0.0034826415518049436
                      CHANNELS 3 Yrotation Xrotation Zrotation
                      End Site
                      {
                        OFFSET 0.18116185580251631 0.002815456192251098 0.0034826415518049436
                      }
                    }
                  }
                }
                JOINT leftMiddleProximal
                {
                  OFFSET 0.6637478005691111 0.07380246480054087 0.02046981859247815
                  CHANNELS 3 Yrotation Xrotation Zrotation
                  JOINT leftMiddleIntermediate
                  {
                    OFFSET 0.3705733999999994 -2.9611069152224445e-9 9.35054791928458e-8
                    CHANNELS 3 Yrotation Xrotation Zrotation
                    JOINT leftMiddleDistal
                    {
                      OFFSET 0.22861063500000056 -1.82673876025774e-9 -1.6740782024515788e-7
                      CHANNELS 3 Yrotation Xrotation Zrotation
                      End Site
                      {
                        OFFSET 0.22861063500000056 -1.82673876025774e-9 -1.6740782024515788e-7
                      }
                    }
                  }
                }
                JOINT leftRingProximal
                {
                  OFFSET 0.6561845547265777 0.07380246406440083 -0.13588087571513918
                  CHANNELS 3 Yrotation Xrotation Zrotation
                  JOINT leftRingIntermediate
                  {
                    OFFSET 0.3437531000000005 -2.746796123886952e-9 1.4935781944558357e-7
                    CHANNELS 3 Yrotation Xrotation Zrotation
                    JOINT leftRingDistal
                    {
                      OFFSET 0.1983118991198174 -0.002467117924596085 -0.004538141969590015
                      CHANNELS 3 Yrotation Xrotation Zrotation
                      End Site
                      {
                        OFFSET 0.1983118991198174 -0.002467117924596085 -0.004538141969590015
                      }
                    }
                  }
                }
                JOINT leftThumbProximal
                {
                  OFFSET 0.09767004258864787 -0.14930060425447422 -0.07008212897521154
                  CHANNELS 3 Yrotation Xrotation Zrotation
                  JOINT leftThumbIntermediate
                  {
                    OFFSET 0.36682123028154767 -0.015768465060082004 0.28693641268151077
                    CHANNELS 3 Yrotation Xrotation Zrotation
                    JOINT leftThumbDistal
                    {
                      OFFSET 0.21091084272403915 -0.016756648201192714 0.1933767059105508
                      CHANNELS 3 Yrotation Xrotation Zrotation
                      End Site
                      {
                        OFFSET 0.21091084272403915 -0.016756648201192714 0.1933767059105508
                      }
                    }
                  }
                }
              }
            }
          }
        }
        JOINT rightShoulder
        {
          OFFSET -0.37618174442811925 1.0539491987447769 0
          CHANNELS 3 Yrotation Xrotation Zrotation
          JOINT rightUpperArm
          {
            OFFSET -0.870284438 0 0
            CHANNELS 3 Yrotation Xrotation Zrotation
            JOINT rightLowerArm
            {
              OFFSET -2.1985273100003235 0 0
              CHANNELS 3 Yrotation Xrotation Zrotation
              JOINT rightHand
              {
                OFFSET -2.1468523139682802 0 0
                CHANNELS 3 Yrotation Xrotation Zrotation
                JOINT rightIndexProximal
                {
                  OFFSET -0.6585177834681599 0.07380250427007962 0.18382213159631788
                  CHANNELS 3 Yrotation Xrotation Zrotation
                  JOINT rightIndexIntermediate
                  {
                    OFFSET -0.3323021288626682 -0.009606893929485771 -0.012820872253340998
                    CHANNELS 3 Yrotation Xrotation Zrotation
                    JOINT rightIndexDistal
                    {
                      OFFSET -0.2045908926985518 -0.0071133989147997845 -0.006828784783599051
                      CHANNELS 3 Yrotation Xrotation Zrotation
                      End Site
                      {
                        OFFSET -0.2045908926985518 -0.0071133989147997845 -0.006828784783599051
                      }
                    }
                  }
                }
                JOINT rightLittleProximal
                {
                  OFFSET -0.6110054258835662 0.07380246363125398 -0.29175655876064077
                  CHANNELS 3 Yrotation Xrotation Zrotation
                  JOINT rightLittleIntermediate
                  {
                    OFFSET -0.3144281999999998 -2.5124724523095665e-9 1.8658118799974588e-7
                    CHANNELS 3 Yrotation Xrotation Zrotation
                    JOINT rightLittleDistal
                    {
                      OFFSET -0.18116185580251631 0.002815456192251098 0.0034826415518049436
                      CHANNELS 3 Yrotation Xrotation Zrotation
                      End Site
                      {
                        OFFSET -0.18116185580251631 0.002815456192251098 0.0034826415518049436
                      }
                    }
                  }
                }
                JOINT rightMiddleProximal
                {
                  OFFSET -0.6637478005691111 0.07380246480054087 0.02046981859247815
                  CHANNELS 3 Yrotation Xrotation Zrotation
                  JOINT rightMiddleIntermediate
                  {
                    OFFSET -0.3705733999999994 -2.9611069152224445e-9 9.35054791928458e-8
                    CHANNELS 3 Yrotation Xrotation Zrotation
                    JOINT rightMiddleDistal
                    {
                      OFFSET -0.22861063500000056 -1.82673876025774e-9 -1.6740782024515788e-7
                      CHANNELS 3 Yrotation Xrotation Zrotation
                      End Site
                      {
                        OFFSET -0.22861063500000056 -1.82673876025774e-9 -1.6740782024515788e-7
                      }
                    }
                  }
                }
                JOINT rightRingProximal
                {
                  OFFSET -0.6561845547265777 0.07380246406440083 -0.13588087571513918
                  CHANNELS 3 Yrotation Xrotation Zrotation
                  JOINT rightRingIntermediate
                  {
                    OFFSET -0.3437531000000005 -2.746796123886952e-9 1.4935781944558357e-7
                    CHANNELS 3 Yrotation Xrotation Zrotation
                    JOINT rightRingDistal
                    {
                      OFFSET -0.1983118991198174 -0.002467117924596085 -0.004538141969590015
                      CHANNELS 3 Yrotation Xrotation Zrotation
                      End Site
                      {
                        OFFSET -0.1983118991198174 -0.002467117924596085 -0.004538141969590015
                      }
                    }
                  }
                }
                JOINT rightThumbProximal
                {
                  OFFSET -0.09767004258864787 -0.14930060425447422 -0.07008212897521154
                  CHANNELS 3 Yrotation Xrotation Zrotation
                  JOINT rightThumbIntermediate
                  {
                    OFFSET -0.36682123028154767 -0.015768465060082004 0.28693641268151077
                    CHANNELS 3 Yrotation Xrotation Zrotation
                    JOINT rightThumbDistal
                    {
                      OFFSET -0.21091084272403915 -0.016756648201192714 0.1933767059105508
                      CHANNELS 3 Yrotation Xrotation Zrotation
                      End Site
                      {
                        OFFSET -0.21091084272403915 -0.016756648201192714 0.1933767059105508
                      }
                    }
                  }
                }
              }
            }
          }
        }
      }
    }
  }
  JOINT leftUpperLeg
  {
    OFFSET 0.7715603 -0.3993844658041501 0
    CHANNELS 3 Yrotation Xrotation Zrotation
    JOINT leftLowerLeg
    {
      OFFSET 0 -3.529830000249343 0
      CHANNELS 3 Yrotation Xrotation Zrotation
      JOINT leftFoot
      {
        OFFSET 0 -4.154939295409685 0.004208579085223096
        CHANNELS 3 Yrotation Xrotation Zrotation
        JOINT leftToes
        {
          OFFSET 0 -0.6353414391261847 1.10414981190622
          CHANNELS 3 Yrotation Xrotation Zrotation
          End Site
          {
            OFFSET 0 -0.6015820691747853 1.10414981190622
          }
        }
      }
    }
  }
  JOINT rightUpperLeg
  {
    OFFSET -0.7715603 -0.3993844658041501 0
    CHANNELS 3 Yrotation Xrotation Zrotation
    JOINT rightLowerLeg
    {
      OFFSET 0 -3.529830000249343 0
      CHANNELS 3 Yrotation Xrotation Zrotation
      JOINT rightFoot
      {
        OFFSET 0 -4.154939295409685 0.004208579085223096
        CHANNELS 3 Yrotation Xrotation Zrotation
        JOINT rightToes
        {
          OFFSET 0 -0.6353414391261847 1.10414981190622
          CHANNELS 3 Yrotation Xrotation Zrotation
          End Site
          {
            OFFSET 0 -0.6015820691747853 1.10414981190622
          }
        }
      }
    }
  }
}
MOTION
Frames: 4
Frame Time: 0.03333333333333333
-0.24516197768124665 9.3699143149636 2.1219156909859924 -45.18575833987334 -9.783195297781651 0.35076249443105717 -1.2844062545416743 2.2349764760526662 -1.0918195016432053 -2.4431288623434195 2.7288680458454184 0.8585692687981408 0 0 0 9.91435270680196 9.52051352506378 -1.9158909578183478 9.986271117014137 4.312386354813435 5.0725673086939285 0 0 0 0 0 0 -5.440908768540103 -0.09675879362017008 2.965542855126047 1.933441393836657 -38.62684546737798 -1.5710433730175857 -52.20859531076734 -60.82931438906502 16.171892568488296 -11.260977013784805 1.3337084731695124 -23.305343036689962 -6.690536891588466 0.7874942185104336 -3.832452219377596 8.846513481226886 -0.6147509117101119 0.5872412137348335 3.7655325557962835 -1.3210271719072928 9.292077878641846 -27.340632731632155 -11.679770275726826 -37.84079347293831 -8.896881782666853 -0.7194442783894219 -12.018208941708917 0.028876850194149678 -0.000691296623543137 0.03890954994430974 -19.325346949178538 1.2634178018500666 -31.89127782996494 3.634661993680163 -0.6361026615458566 1.288661302042114 0.5543298901710728 -0.2123729055205353 1.6032901556391037 -22.38062555067735 -6.220023593132341 -43.83769751550718 -6.464140351031594 1.4643999090081827 -12.907163785565771 -2.9911549660438252 0.868500349650064 -6.034634191199568 -10.160619637446363 -2.226391039090032 11.193818703385414 -1.5064188903148665 -2.9743046461085854 6.674674536838243 -25.67676121118587 -1.3959552422431902 18.167884457304073 -1.467438167168691 -0.5746142372760569 11.518731571794246 2.1257329927119017 3.076159648337277 28.868629043346516 30.47394398959736 4.725343522017569 -6.389348080030138 -20.232322054199873 -1.772866278749352 21.381216920211024 7.619472141864644 7.958532263359041 11.329970651378847 -0.8656095461678791 -0.6040916384593729 -0.7806868886872552 0.741859598088122 0.9683404587878459 4.137189560943448 7.963067982783588 2.3857461561871114 15.228361979095533 -3.851716407931033 -2.404366363339798 2.420627416179513 -3.261192601371475 -0.9174201583422523 -6.304114053409707 5.956144829168455 6.099416891314054 19.201771316001317 -0.5951919639982717 -1.5591325058851289 -1.2668507700695042 -0.01643364106922108 -0.031103115532803777 -0.11831838623718227 4.596550215274536 3.1537365145311997 21.22021994149332 -2.436593643624273 -3.4206844125515485 -2.358700143295378 -0.1791265498577466 -0.2304633169632217 -0.7739356800751729 3.9961235632103156 3.909241017978832 -4.3652336705142005 0.0007910494338805133 3.254073022769012 2.975510476577459 3.993833169180038 -0.6434083244488518 -2.0819358504913756 17.86080984201693 4.6495472560480415 0.5203521251336961 0.5469486590440056 14.313093873330123 0.2994180040796825 20.536219438603496 -10.199514422394858 -1.4308390311433017 -0.017333326030243585 0.08732430250058 -0.0015009768324493913 -4.307346102482884 -0.9120626862739365 -7.837998414132922 -0.5354317848994465 17.866685065876844 1.5378908672718736 -3.5990069020779742 -7.258563201899614 5.814645752739833 0.31092777775374375 1.791345649244723 0.055169418848039116
-0.2482052824713967 9.372618415138938 2.114791689656397 -45.33659839882513 -9.707573015853404 0.2736751343317897 -1.2398626947749285 2.306514854343531 -1.1515264124965088 -2.3417338665606664 2.7455320157253342 0.8225770625400431 0 0 0 9.983363973598523 9.456032933346089 -1.8740457237917814 10.070370129086594 4.101226796227957 5.454432095460037 0 0 0 0 0 0 -5.319552984060269 -0.09550902732542628 2.8744118035189756 1.7015032443394902 -39.41690255468742 -1.7710889983004368 -53.88552327920083 -60.86870858671322 16.909747377097414 -11.249682981807895 1.3365207132614592 -23.205440258557264 -6.756100054573666 0.8463273929480668 -4.10253446070084 8.673319067571985 -0.5732188343305301 0.6040926789839851 3.6838557425342295 -1.2858683194380056 9.084985512187766 -27.43483814686732 -11.7365598322051 -37.80120106997345 -9.343132477613022 -0.8055099429679806 -12.624813736681366 -0.313426644071201 0.006546954362814015 -0.4225223952000377 -19.70038254663384 1.1137322661929572 -32.34393114334488 3.41270258078937 -0.5867441556342216 1.300956426732375 0.3609987474930221 -0.13627483550486627 1.0423725124170857 -22.5215796625409 -6.290326936460433 -43.94485122308179 -6.839127149739884 1.5032139487624026 -13.6436445208177 -3.1811621850768783 0.9122692189475359 -6.413635733875767 -10.140388376207474 -2.285563290372255 11.072501237512816 -1.5036142140283453 -3.138993739193169 6.776054936524458 -25.611890248851132 -1.4028880310631264 18.121887815074857 -1.3188275419025717 -0.5683538974098322 11.532312892881581 2.2834467628590174 3.088811028149452 29.00375805608406 31.013094990011204 4.978026518146498 -6.488959168913215 -20.31265089079526 -1.8184817939409113 21.249531407662488 7.564166751120719 7.9786243160172585 11.284755109436023 -0.8461419130751465 -0.5923385901559656 -0.7828724873877808 0.7607989862316523 0.981846232224233 4.2268474040822435 7.934879700326671 2.4083140652654036 15.200889822403564 -3.836080574373701 -2.394587630734623 2.4207627769348856 -3.2090148155884157 -0.8996793929745456 -6.202043136165397 5.908163336347097 6.104630973784296 19.18623030799517 -0.5875778295695735 -1.5176093052503987 -1.2729824670356267 0.007363243205771927 -0.0006145729926982939 -0.0006978867409340636 4.38356517565623 3.129275211675464 21.022095286846756 -2.4607111870888447 -3.464696469963779 -2.3527387201347927 -0.18851186248880242 -0.24154083052780834 -0.811057520621194 4.004619635391191 3.9733578064013475 -4.3853447538855495 0.06967406861589286 3.285639547789826 3.00180569316055 4.078891466716396 -0.6554229187197278 -2.1266193534645965 17.94579427976497 4.5744207915140915 0.6224942484507213 0.5466347391837684 14.21988316616415 0.2990740691228356 20.603704190951568 -10.122212884263924 -1.4553352562430573 -0.018904260122907784 0.08391069153762554 -0.0007880234988564461 -4.271237473019019 -0.9094409498036191 -7.690103945351529 -0.5340761196564623 17.646381876120387 1.5244377648427792 -3.4968463776552716 -7.111357732327858 5.865627321359826 0.29991382734509875 1.725521036383527 0.05674148228993258
-0.2494998953559182 9.375801953402432 2.109034477017542 -45.53128702723103 -9.659792072859194 0.20192334222017858 -1.1865771006367554 2.3682351325989996 -1.2167624375970556 -2.2226438539226923 2.8042113153921764 0.7732177005880302 0 0 0 10.037647617968213 9.333460361368864 -1.8069495587497395 10.13604414997579 3.868884547777379 5.7563781674751775 0 0 0 0 0 0 -5.309410740644459 -0.09937487329627522 2.775013831215937 1.5759206518680116 -40.150753851151535 -1.826068432261804 -55.40524331784828 -60.7329928905734 17.54295891028436 -11.352147262688627 1.327889503430954 -23.189686684080222 -6.875295277616697 0.9984406269887122 -4.362095466574524 8.53691630588777 -0.5414830462318854 0.6166081483894197 3.5651582652150857 -1.2337918651855566 8.78507783250037 -27.412130244652896 -11.703134437087883 -37.598835954360595 -10.001546355110044 -0.9415550329469736 -13.5206234074649 -0.7796684165150394 0.011854514594411975 -1.0508625090458816 -20.079949910987533 0.957458857680215 -32.819255188125275 3.177959836908133 -0.5377306513655188 1.313016431999084 0.13213236470989131 -0.04900347164888611 0.380805072668903 -22.588281532220943 -6.244630062569324 -44.008060779834835 -7.276365987910907 1.5426330490675058 -14.502078451455908 -3.4257607311324993 0.9667822064229157 -6.901068112234054 -10.130190993454173 -2.2774334030206878 10.96581116284577 -1.5006232508781265 -3.2672014089907013 6.8465997731748995 -25.53755152133137 -1.410412257781608 18.06932887273403 -1.1770192116838698 -0.5621484752894046 11.535203316914219 2.3719952048717596 2.9344694763184314 29.272145759662667 31.60650165444916 5.595824301134432 -6.596131289129083 -20.235650888937858 -1.8868695979387058 21.017691419173733 7.526961450681485 8.029098472762504 11.354241653679127 -0.8287372864968396 -0.5818488966094226 -0.7846119857902716 0.7596182768750274 0.9729523520356376 4.171492162857995 7.878780195176485 2.446459896029978 15.20162504273039 -3.819960902113014 -2.3843344992468314 2.4202521038587554 -3.2343783586094466 -0.9082695317099636 -6.251658257258416 5.865237434344714 6.118377590700036 19.202023322450508 -0.5865318342595919 -1.5193594087608093 -1.2726987211655096 -0.0008630311809505778 -0.009315016533420347 -0.034554092418251574 4.4959695615546424 3.184847371222846 21.152312301695325 -2.4179610720469498 -3.3895121042750995 -2.356764948688126 -0.18238530064031014 -0.23452232369714024 -0.787492215931072 4.057085264393494 4.047277100310246 -4.326778231066542 0.34402575889501014 3.349440975083344 3.0509881172652755 4.357153237892114 -0.6945219555029386 -2.2728730955625607 17.850947471577555 4.544768877906446 0.6557395733953473 0.5387284513707568 14.099605016913081 0.2940604688038722 20.906739979065986 -10.020183147727215 -1.4462645150114297 -0.020497981780109142 0.06629084933635335 -0.000004206924572779225 -4.169767225153021 -0.8937977730232437 -7.549012033071813 -0.532853355462589 17.455683184198488 1.5134195529565178 -3.4356777693280467 -6.9810417344801055 5.806207487768165 0.30321504420890266 1.7398054375850676 0.05645214582506582
-0.24882313880053433 9.37780206853693 2.105067191861292 -45.674109962197974 -9.593657220592876 0.14944866428773654 -1.1575503132929226 2.413477990267545 -1.282219048632667 -2.1509976972431035 2.836348928847355 0.7057375230779067 0 0 0 10.078200039737991 9.353544618562273 -1.819974083745985 10.204543660033439 3.4088542244848585 6.052999714603101 0 0 0 0 0 0 -5.224136210990126 -0.09734631079357989 2.7399718897552794 1.4451193726249674 -40.82336580452336 -1.9818170214577855 -56.8572171885805 -60.57671517119141 18.134220546506157 -11.410097957611804 1.330077246561548 -22.867142364651894 -7.005207818908436 1.163864445748037 -4.581632043762978 8.396132942144108 -0.5094955510747002 0.62896606152331 3.4386128773859017 -1.179387802018534 8.46592741150761 -27.381527098090228 -11.680329116344735 -37.45751944548747 -10.687714424570961 -1.0949358294678688 -14.455589406192297 -1.2492409216976716 0.012084670796875408 -1.6837290318202898 -20.356757229278628 0.8486282444475095 -33.302104788521824 2.9032051997440345 -0.48374546410301184 1.3258909130585954 -0.08345190539920724 0.030398732162872387 -0.24008143715026123 -22.678320205726443 -6.261575836555166 -44.11657347120443 -7.808428803928205 1.581215649154121 -15.544562325984598 -3.7008107511712973 1.0252361158094396 -7.447982422763499 -10.129831950877241 -2.1405114077106484 10.886262854705173 -1.4969315029182673 -3.2338768752497242 6.786729732856647 -25.3874069475473 -1.4274870969977997 17.962468729965998 -1.0485287266428176 -0.5574845141237181 11.55480126046013 2.469868760233524 2.7178149886160803 29.60713603523019 32.215158752818226 5.827041654919861 -6.708383961339443 -20.281428920072813 -1.933328747466895 20.877825211971796 7.488174615326072 8.022764611246485 11.300569921596885 -0.813134673962912 -0.5724439426585308 -0.7858632877668693 0.7611284234731185 0.9823026412817323 4.21394892049976 7.83422533146305 2.458906084235592 15.188399173475005 -3.8742127856762214 -2.418665220962367 2.420692029107239 -3.265894034477108 -0.9190214029933923 -6.313279716721924 5.86514498818076 6.146680361166052 19.295985732324436 -0.578193095149412 -1.487554248808472 -1.2775950827571254 0.005967130235689556 0.017752844213318186 0.0667903830194521 4.457681989915246 3.1934178037812497 21.262768574462097 -2.4025291077029474 -3.3623794770582984 -2.358664685554357 -0.1651495412018224 -0.21457120115459946 -0.7205527466611084 4.0624058904309885 4.16134053369597 -4.3536979826125535 0.4437724544385834 3.4267812062480063 3.1201842131971262 4.493671012597361 -0.7134133368530053 -2.3446687930461403 17.826728138928694 4.483612892700497 0.6715878133274401 0.5329977251087498 14.019375052571329 0.28819195135489156 21.07925671848139 -9.941233456476537 -1.3917662290604185 -0.02183755523584883 0.04746061874706608 0.001049319660957419 -4.1354182582418675 -0.9588269010656614 -7.463231829356778 -0.5320142989018813 17.373734954062265 1.5091995034850985 -3.3472760568163586 -6.876720928332362 5.7308449790616685 0.302135473021353 1.7407059437920478 0.05628904013075096
